<svg width="121" height="121" viewBox="0 0 121 121" fill="none" xmlns="http://www.w3.org/2000/svg">
<circle cx="60.5" cy="60.5" r="60.5" fill="#41607C" fill-opacity="0.08"/>
<g clip-path="url(#clip0_101_86)">
<path d="M93.3171 100H81.1399C79.1283 100 77.4845 98.3573 77.4845 96.3471V85.8208C75.5379 87.4419 73.4831 88.8685 71.6879 89.9924C67.189 92.8456 61.9764 95.3745 58.4292 96.412C58.0399 96.52 57.6289 96.52 57.2612 96.412C53.714 95.3745 48.523 92.8456 44.0025 89.9924C40.0876 87.5068 34.9182 83.6594 32.4525 79.4445C25.5095 67.4917 23.0438 36.4315 23.0438 30.6604C23.0438 29.7742 23.4764 28.9745 24.1685 28.5854C30.5275 25.019 41.3421 21.2365 56.3528 17.3242C56.807 17.2161 57.5424 17 57.8668 17C58.2129 17 58.9483 17.2161 59.3809 17.3242C71.6663 20.5016 81.2047 23.6573 87.7584 26.6617C88.364 26.9427 88.6452 27.656 88.364 28.2828C88.0828 28.888 87.3691 29.169 86.7418 28.888C80.3179 25.9268 70.9092 22.8359 58.7969 19.6802C58.4076 19.5721 58.0831 19.5073 57.8885 19.4424C57.6938 19.5073 57.3694 19.5721 56.98 19.6802C38.7033 24.4354 29.7705 28.2612 25.4879 30.6388V30.6604C25.4879 36.0857 27.9753 66.8648 34.6154 78.2341C36.3458 81.1953 40.1525 84.632 45.3651 87.9391C49.6477 90.6625 54.5576 93.0617 57.8885 94.056C61.241 93.0617 66.1292 90.6625 70.4118 87.9391C75.6244 84.632 79.4311 81.1737 81.1615 78.2341C81.1831 78.1909 81.2047 78.1477 81.2264 78.1044H81.1615C80.2963 78.1044 79.496 77.8018 78.8904 77.3047C75.5163 82.6651 64.5503 89.1711 58.2994 91.3758C58.2129 91.419 58.1047 91.4406 57.9966 91.4406C57.9533 91.4406 57.9317 91.4406 57.8885 91.4406C57.7371 91.4406 57.5856 91.419 57.4559 91.3542C52.6758 89.6682 44.9758 85.4318 40.0227 80.8927C39.5253 80.4388 39.5036 79.6607 39.9578 79.1852C40.4121 78.688 41.1907 78.6664 41.6665 79.1203C45.7112 82.838 52.0702 86.5557 56.6772 88.4578V56.2305H33.123C34.5073 64.0766 36.389 71.6417 38.8115 75.7917C39.1576 76.3753 38.9629 77.1102 38.3789 77.456C37.7949 77.8018 37.0595 77.6073 36.7135 77.0237C30.7005 66.7352 28.2997 39.5872 27.9753 32.8867C27.9536 32.4112 28.2132 31.9573 28.6458 31.7411C34.9182 28.6503 44.6297 25.4081 57.5424 22.0362C57.6289 22.0146 57.7371 21.993 57.8452 21.993C57.8668 21.993 57.8885 21.993 57.9101 21.993C58.0182 21.993 58.1264 22.0146 58.2129 22.0362C71.1255 25.3865 80.837 28.6503 87.1095 31.7195C87.5421 31.9357 87.8017 32.3896 87.78 32.8651C87.7368 34.0107 87.6502 35.3292 87.5205 36.7557H89.9429C90.1809 33.7081 90.2674 31.6115 90.2674 30.6388C90.2674 30.6172 90.2674 30.6172 90.2674 30.5956C89.7699 30.2281 89.6185 29.5581 89.9213 29.0177C90.2458 28.4341 91.0028 28.218 91.5868 28.5638C92.2789 28.9529 92.7115 29.7526 92.7115 30.6388C92.7115 31.6331 92.625 33.7297 92.387 36.7557C92.971 36.8422 93.4036 37.3609 93.4036 37.9445C93.4036 38.6146 92.8629 39.1549 92.1924 39.1549H81.1615C80.491 39.1549 79.9502 39.6953 79.9502 40.3654V52.5344C79.9502 53.2044 80.491 53.7448 81.1615 53.7448H93.3387C94.0092 53.7448 94.55 53.2044 94.55 52.5344V43.8453L88.5154 49.8758C88.0396 50.3513 87.2609 50.3513 86.7851 49.8758L82.7188 45.8122C82.2429 45.3367 82.2429 44.5586 82.7188 44.0831C83.1946 43.6076 83.9733 43.6076 84.4491 44.0831L87.6502 47.282L97.8592 37.0799C98.3351 36.6044 99.1137 36.6044 99.5896 37.0799C100.065 37.5555 100.065 38.3336 99.5896 38.8091L96.9724 41.4677V52.5776C96.9724 54.5878 95.3286 56.2305 93.3171 56.2305H90.0511C89.9213 57.0518 89.7699 57.8732 89.6185 58.6513H92.1924C92.8629 58.6513 93.4036 59.1917 93.4036 59.8617C93.4036 60.5318 92.8629 61.0721 92.1924 61.0721H81.1615C80.491 61.0721 79.9502 61.6125 79.9502 62.2826C79.9502 62.2826 79.9502 74.5813 79.9719 74.6461C79.9719 74.6677 79.9719 74.6893 79.9935 74.7109C80.1233 75.2513 80.5991 75.662 81.1831 75.662H93.3604C94.0309 75.662 94.5716 75.1216 94.5716 74.4516V65.7625L88.537 71.793C88.0612 72.2685 87.2826 72.2685 86.8067 71.793L82.7404 67.7294C82.2646 67.2539 82.2646 66.4758 82.7404 66.0003C83.2163 65.5247 83.9949 65.5247 84.4708 66.0003L87.6719 69.1992L97.8809 58.9971C98.3567 58.5216 99.1354 58.5216 99.6112 58.9971C100.087 59.4727 100.087 60.2508 99.6112 60.7263L96.9724 63.3417V74.4516C96.9724 76.4617 95.3286 78.1044 93.3171 78.1044H83.9949C83.757 78.5799 83.4974 79.0339 83.2595 79.4661C83.0432 79.8336 82.8269 80.1794 82.5674 80.5469H92.1924C92.8629 80.5469 93.4036 81.0872 93.4036 81.7573C93.4036 82.4273 92.8629 82.9677 92.1924 82.9677H81.1615C80.491 82.9677 79.9502 83.5081 79.9502 84.1781V96.3471C79.9502 97.0172 80.491 97.5576 81.1615 97.5576H93.3387C94.0092 97.5576 94.55 97.0172 94.55 96.3471V87.6581L88.5154 93.6885C88.0396 94.1641 87.2609 94.1641 86.7851 93.6885L82.7404 89.625C82.2646 89.1495 82.2646 88.3714 82.7404 87.8958C83.2163 87.4203 83.9949 87.4203 84.4708 87.8958L87.6719 91.0948L97.8809 80.8927C98.3567 80.4172 99.1354 80.4172 99.6112 80.8927C100.087 81.3682 100.087 82.1464 99.6112 82.6219L96.9724 85.2372V96.3471C96.9724 98.3573 95.3286 100 93.3171 100ZM59.0997 56.2305V88.4578C65.6966 85.7344 74.5429 79.9201 76.9654 75.7917C77.1601 75.4674 77.3547 75.1216 77.5278 74.7326C77.5278 74.6461 77.5278 74.538 77.5278 74.4516V62.2826C77.5278 60.2724 79.1716 58.6297 81.1831 58.6297H82.2213C82.3727 57.8299 82.5241 57.0302 82.6755 56.2089H59.0997V56.2305ZM84.6654 58.6729H87.1528C87.3042 57.8732 87.434 57.0734 87.5854 56.2521H85.1196C84.9682 57.0518 84.8168 57.8732 84.6654 58.6729ZM59.0997 53.8096H77.7224C77.5927 53.4206 77.5062 53.0099 77.5062 52.5992V40.4302C77.5062 38.4201 79.15 36.7773 81.1615 36.7773H85.098C85.1845 35.6318 85.271 34.5294 85.3143 33.5784C81.0533 31.5682 73.1803 28.5206 59.0997 24.7812V53.8096ZM32.7121 53.8096H56.6772V24.8029C42.575 28.5206 34.7019 31.5682 30.4626 33.5784C30.7222 38.3768 31.4576 46.0932 32.7121 53.8096Z" fill="#D6B764"/>
</g>
<defs>
<clipPath id="clip0_101_86">
<rect width="77" height="83" fill="white" transform="translate(23 17)"/>
</clipPath>
</defs>
</svg>
