<svg width="121" height="121" viewBox="0 0 121 121" fill="none" xmlns="http://www.w3.org/2000/svg">
<circle cx="60.5" cy="60.5" r="60.5" fill="#41607C" fill-opacity="0.08"/>
<g clip-path="url(#clip0_101_42)">
<path d="M95.8094 81.336V76.1362C95.8094 75.4617 95.2625 74.9178 94.5844 74.9178C93.9063 74.9178 93.3594 75.4617 93.3594 76.1362V81.2272H26.6625V40.477C26.6625 37.6052 29.025 35.2554 31.9125 35.2554H43.0469C43.2 36.1039 43.4188 36.9089 43.7031 37.7139H31.9125C30.3812 37.7139 29.1125 38.9541 29.1125 40.4988V77.5721C29.1125 78.2466 29.6594 78.7905 30.3375 78.7905H89.6406C90.3187 78.7905 90.8656 78.2466 90.8656 77.5721V40.477C90.8656 38.9541 89.6187 37.6922 88.0656 37.6922H76.275C76.5375 36.9089 76.7562 36.0822 76.9312 35.2337H88.0875C90.975 35.2337 93.3375 37.5834 93.3375 40.4553V71.2192C93.3375 71.8936 93.8844 72.4376 94.5625 72.4376C95.2406 72.4376 95.7875 71.8936 95.7875 71.2192V40.477C95.7875 36.2562 92.3312 32.7969 88.0656 32.7969H77.1938C77.1938 32.5794 77.2156 32.3618 77.2156 32.1225C77.2375 22.6801 69.4938 15 60 15C56.4562 15 53.0656 16.0661 50.1781 18.0459C49.6313 18.4376 49.4781 19.199 49.8719 19.7429C50.2656 20.3086 51.0312 20.4392 51.5781 20.0475C54.05 18.3288 56.9594 17.4367 60 17.4367C68.1375 17.4367 74.7656 24.029 74.7656 32.1225C74.7656 40.216 68.1375 46.8082 60 46.8082C51.8625 46.8082 45.2344 40.216 45.2344 32.1225C45.2344 28.8372 46.3063 25.726 48.3188 23.137C48.7344 22.5931 48.6469 21.8316 48.1 21.4182C47.5531 21.0048 46.7875 21.0919 46.3719 21.6358C44.0094 24.66 42.7844 28.2933 42.7844 32.1225C42.7844 32.34 42.7844 32.5794 42.8063 32.7969H31.9125C27.6687 32.7969 24.1906 36.2345 24.1906 40.477V81.336C20.6906 81.9235 18 84.9694 18 88.6245C18 92.693 21.325 96 25.4156 96H94.5625C98.6531 96 101.978 92.693 101.978 88.6245C102 84.9694 99.3094 81.9235 95.8094 81.336ZM60 49.2885C66.5844 49.2885 72.3375 45.5898 75.225 40.1507H88.0875C88.2625 40.1507 88.4156 40.303 88.4156 40.477V76.332H31.5844V40.477C31.5844 40.303 31.7375 40.1507 31.9125 40.1507H44.775C47.6625 45.5681 53.4156 49.2885 60 49.2885ZM71.3313 83.6857C70.8063 85.4045 69.1875 86.6664 67.2844 86.6664H52.7156C50.8125 86.6664 49.1937 85.4045 48.6687 83.6857H71.3313ZM94.5844 93.5633H25.4156C22.6813 93.5633 20.45 91.3441 20.45 88.6245C20.45 85.9049 22.6813 83.6857 25.4156 83.6857H46.1313C46.7 86.7752 49.4344 89.1031 52.6938 89.1031H67.2625C70.5219 89.1031 73.2562 86.7534 73.825 83.6857H94.5406C97.275 83.6857 99.5063 85.9049 99.5063 88.6245C99.55 91.3441 97.3188 93.5633 94.5844 93.5633Z" fill="#D6B764"/>
<path d="M59.9124 37.5616C58.5343 37.5616 58.0968 37.4964 57.0468 36.8002C56.4781 36.4303 55.7124 36.5826 55.3406 37.1483C54.9687 37.7139 55.1218 38.4754 55.6906 38.8453C56.8718 39.6068 57.6812 39.8679 58.6874 39.9549V40.7164C58.6874 41.3908 59.2343 41.9347 59.9124 41.9347C60.5906 41.9347 61.1374 41.3908 61.1374 40.7164V39.8243C63.1937 39.3022 64.5062 37.5616 64.7906 35.8429C65.1624 33.6237 63.9593 31.6438 61.7937 30.8824C60.5249 30.4472 59.1249 29.9033 58.3374 29.2724C58.0531 29.033 57.9218 28.5544 58.0093 28.0322C58.0968 27.5101 58.4687 26.8791 59.1468 26.6833C60.6999 26.2264 61.7281 27.0097 61.8374 27.1185C62.3624 27.5536 63.1281 27.4883 63.5656 26.9662C64.0031 26.444 63.9374 25.6825 63.4124 25.2474C63.1937 25.0733 62.3843 24.4424 61.1374 24.2031V23.5286C61.1374 22.8542 60.5906 22.3102 59.9124 22.3102C59.2343 22.3102 58.6874 22.8542 58.6874 23.5286V24.2901C58.5999 24.3118 58.5343 24.3336 58.4468 24.3554C56.9812 24.7905 55.8874 26.0306 55.6031 27.5971C55.3406 29.033 55.7999 30.4255 56.8281 31.2087C57.7031 31.8832 58.9062 32.4706 60.9843 33.1886C62.4937 33.7107 62.4718 34.9509 62.3843 35.4513C62.2093 36.4738 61.3562 37.5616 59.9124 37.5616Z" fill="#D6B764"/>
<path d="M57.6375 74.5915C58.2281 75.2659 59.0812 75.6575 60 75.6575C60.8968 75.6575 61.7718 75.2659 62.3625 74.5915L68.7281 67.3247C69.5375 66.3892 69.7343 65.1273 69.2093 63.996C68.6843 62.8646 67.6125 62.1684 66.3656 62.1684H65.6656V51.747C65.6656 51.0725 65.1187 50.5286 64.4406 50.5286H55.6031C54.925 50.5286 54.3781 51.0725 54.3781 51.747V62.1684H53.6781C52.4312 62.1684 51.3375 62.8646 50.8343 63.996C50.3093 65.1273 50.5062 66.3892 51.3156 67.3247L57.6375 74.5915ZM53.0218 64.9968C53.0656 64.888 53.2406 64.6052 53.6343 64.6052H55.5812C56.2593 64.6052 56.8062 64.0612 56.8062 63.3868V52.9653H63.1937V63.3868C63.1937 64.0612 63.7406 64.6052 64.4187 64.6052H66.3656C66.7593 64.6052 66.9125 64.8662 66.9781 64.9968C67.0218 65.1056 67.1312 65.4102 66.8687 65.7147L60.5031 72.9815C60.3281 73.1773 60.1093 73.199 60 73.199C59.8906 73.199 59.6718 73.1773 59.4968 72.9815L53.1312 65.7147C52.8906 65.4319 52.9781 65.1273 53.0218 64.9968Z" fill="#D6B764"/>
</g>
<defs>
<clipPath id="clip0_101_42">
<rect width="84" height="81" fill="white" transform="translate(18 15)"/>
</clipPath>
</defs>
</svg>
