<svg width="121" height="121" viewBox="0 0 121 121" fill="none" xmlns="http://www.w3.org/2000/svg">
<circle cx="60.5" cy="60.5" r="60.5" fill="#41607C" fill-opacity="0.08"/>
<g clip-path="url(#clip0_101_35)">
<path d="M60 100.827C37.5481 100.827 19.1731 82.4519 19.1731 59.9999C19.1731 37.548 37.5481 19.173 60 19.173C82.452 19.173 100.827 37.548 100.827 59.9999C100.827 82.4519 82.452 100.827 60 100.827ZM60 23.2499C39.577 23.2499 23.25 39.5769 23.25 59.9999C23.25 80.423 39.577 96.7499 60 96.7499C80.4231 96.7499 96.75 80.423 96.75 59.9999C96.75 39.5769 80.4231 23.2499 60 23.2499Z" fill="#D8BC8B"/>
<path d="M60 31.423C58.775 31.423 57.9519 30.6 57.9519 29.375V13.048C57.9519 11.823 58.775 11 60 11C61.225 11 62.048 11.823 62.048 13.048V29.375C62.048 30.6 61.225 31.423 60 31.423Z" fill="#D8BC8B"/>
<path d="M60 31.423C58.775 31.423 57.9519 30.6 57.9519 29.375V13.048C57.9519 11.823 58.775 11 60 11C61.225 11 62.048 11.823 62.048 13.048V29.375C62.048 30.6 61.225 31.423 60 31.423Z" fill="#D8BC8B"/>
<path d="M106.952 62.0484H90.6248C89.3998 62.0484 88.5768 61.2253 88.5768 60.0003C88.5768 58.7753 89.3998 57.9523 90.6248 57.9523H106.952C108.177 57.9523 109 58.7753 109 60.0003C109 61.2253 108.177 62.0484 106.952 62.0484Z" fill="#D8BC8B"/>
<path d="M60 109C58.775 109 57.9519 108.177 57.9519 106.952V90.625C57.9519 89.4 58.775 88.577 60 88.577C61.225 88.577 62.048 89.4 62.048 90.625V106.952C62.048 108.177 61.225 109 60 109Z" fill="#D8BC8B"/>
<path d="M29.375 62.0484H13.048C11.823 62.0484 11 61.2253 11 60.0003C11 58.7753 11.823 57.9523 13.048 57.9523H29.375C30.6 57.9523 31.423 58.7753 31.423 60.0003C31.423 61.2253 30.6 62.0484 29.375 62.0484Z" fill="#D8BC8B"/>
<path d="M60 55.9234C55.5019 55.9234 51.8269 52.2484 51.8269 47.7503C51.8269 43.2523 55.5019 39.5773 60 39.5773C64.498 39.5773 68.173 43.2523 68.173 47.7503C68.173 52.2484 64.498 55.9234 60 55.9234ZM60 43.6734C57.55 43.6734 55.923 45.3003 55.923 47.7503C55.923 50.2003 57.55 51.8273 60 51.8273C62.45 51.8273 64.0769 50.2003 64.0769 47.7503C64.0769 45.3003 62.45 43.6734 60 43.6734Z" fill="#D8BC8B"/>
<path d="M74.2979 76.3269C73.0729 76.3269 72.2498 75.5039 72.2498 74.2789V70.2019C72.2498 66.9289 69.3979 64.077 66.1248 64.077H53.8748C50.6018 64.077 47.7498 66.9289 47.7498 70.2019V74.2789C47.7498 75.5039 46.9268 76.3269 45.7018 76.3269C44.4768 76.3269 43.6537 75.5039 43.6537 74.2789V70.2019C43.6537 64.4789 48.1518 60 53.8557 60H66.1057C71.8287 60 76.3076 64.498 76.3076 70.2019V74.2789C76.3268 75.523 75.5229 76.3269 74.2979 76.3269Z" fill="#D8BC8B"/>
</g>
<defs>
<clipPath id="clip0_101_35">
<rect width="98" height="98" fill="white" transform="translate(11 11)"/>
</clipPath>
</defs>
</svg>
