<svg width="121" height="121" viewBox="0 0 121 121" fill="none" xmlns="http://www.w3.org/2000/svg">
<circle cx="60.5" cy="60.5" r="60.5" fill="#41607C" fill-opacity="0.08"/>
<path d="M86.643 21.8313C80.1496 21.8313 75.019 27.0413 75.019 33.5338C75.019 40.0263 80.2298 45.1562 86.643 45.1562C93.0562 45.1562 98.3472 39.9462 98.3472 33.4537C98.3472 26.9612 93.1364 21.8313 86.643 21.8313ZM86.643 42.5913C81.5926 42.5913 77.5041 38.5034 77.5041 33.4537C77.5041 28.404 81.6728 24.3962 86.643 24.3962C91.6934 24.3962 95.7819 28.4841 95.7819 33.5338C95.7819 38.5836 91.6934 42.5913 86.643 42.5913Z" fill="#D8BC8B"/>
<path d="M90.3304 35.2972C90.2503 35.0568 90.2503 34.8965 90.0899 34.656C90.0098 34.4957 89.9296 34.2552 89.7693 34.0949C89.6089 33.9346 89.5288 33.7743 89.3684 33.614C89.2081 33.4537 89.0478 33.2934 88.8073 33.2132C88.6469 33.0529 88.4064 32.9727 88.2461 32.8926C88.0056 32.8124 87.8453 32.6521 87.6048 32.572C87.3643 32.4918 87.1238 32.4117 86.9635 32.3315C86.8833 32.3315 86.723 32.2514 86.6428 32.1712C86.5626 32.091 86.4023 32.091 86.3221 32.0109C86.242 31.9307 86.0817 31.9307 86.0015 31.8506C85.9213 31.7704 85.8412 31.6903 85.761 31.6101C85.6808 31.53 85.6007 31.4498 85.6007 31.2895C85.5205 31.2094 85.5205 31.049 85.5205 30.9689C85.5205 30.8086 85.5205 30.7284 85.5205 30.5681C85.5205 30.488 85.6007 30.3277 85.6007 30.2475C85.6808 30.1673 85.6808 30.007 85.761 29.9269C85.8412 29.8467 85.9213 29.7666 86.0015 29.6864C86.0817 29.6063 86.242 29.5261 86.4023 29.5261C86.5626 29.446 86.6428 29.446 86.8031 29.446C86.8833 29.446 86.9635 29.446 87.0436 29.446C87.1238 29.446 87.204 29.446 87.2841 29.446C87.4445 29.446 87.5246 29.446 87.685 29.5261C87.8453 29.5261 88.0056 29.6063 88.0858 29.6063C88.166 29.6063 88.3263 29.6864 88.4065 29.6864C88.5668 29.6864 88.6469 29.7666 88.7271 29.7666L89.1279 29.9269L89.2081 29.446L89.3684 28.1635V27.8429L89.0478 27.7627C88.9676 27.7627 88.8073 27.6826 88.7271 27.6826C88.6469 27.6826 88.5668 27.6024 88.4065 27.6024C88.3263 27.6024 88.166 27.5222 88.0056 27.5222C87.8453 27.5222 87.7651 27.4421 87.6048 27.4421H87.5246V26.3199V25.9192H87.1238H86.0015H85.6007V26.3199V27.5222H85.5205C85.28 27.6024 85.0395 27.6826 84.799 27.8429C84.5585 27.923 84.3982 28.0833 84.2378 28.2436C84.0775 28.4039 83.9172 28.5643 83.7568 28.8047C83.5965 28.965 83.5164 29.2055 83.4362 29.446C83.356 29.6864 83.2759 29.9269 83.1957 30.1673C83.1155 30.4078 83.1155 30.7284 83.1155 30.9689C83.1155 31.2094 83.1155 31.3697 83.1957 31.6101C83.2759 31.8506 83.2759 32.0109 83.4362 32.2514C83.5164 32.4117 83.6767 32.6521 83.7568 32.8124C83.9172 32.9727 83.9973 33.1331 84.1577 33.2934C84.318 33.4537 84.4783 33.614 84.7188 33.6941C84.8792 33.8544 85.1197 33.9346 85.28 34.0148C85.5205 34.0949 85.761 34.2552 85.9213 34.3354C86.1618 34.4155 86.4023 34.4957 86.5626 34.5758C86.6428 34.5758 86.8031 34.656 86.8833 34.7361C86.9635 34.8163 87.1238 34.8163 87.204 34.8965C87.2841 34.9766 87.3643 35.0568 87.4445 35.0568C87.5246 35.1369 87.6048 35.2171 87.685 35.2972C87.7651 35.3774 87.7651 35.4575 87.8453 35.6178C87.8453 35.698 87.9255 35.8583 87.9255 36.0186C87.9255 36.1789 87.9255 36.2591 87.9255 36.4194C87.9255 36.4995 87.8453 36.6598 87.7651 36.74C87.685 36.8202 87.6048 36.9003 87.5246 36.9805C87.4445 37.0606 87.3643 37.1408 87.204 37.2209C87.1238 37.3011 86.9635 37.3011 86.8833 37.3812C86.8031 37.3812 86.6428 37.4614 86.4825 37.4614C86.4023 37.4614 86.3221 37.4614 86.1618 37.4614C86.0816 37.4614 85.9213 37.4614 85.8412 37.4614C85.6808 37.4614 85.5205 37.4614 85.4403 37.4614C85.28 37.4614 85.1197 37.3812 85.0395 37.3812C84.8792 37.3812 84.7188 37.3011 84.5585 37.2209C84.3982 37.1408 84.2378 37.1408 84.0775 37.0606C83.9973 37.0606 83.9172 36.9805 83.837 36.9805C83.7568 36.9805 83.6767 36.9003 83.5965 36.9003L83.1155 36.6598L83.0354 37.2209L82.875 38.6637V38.9042L83.1155 38.9843C83.4362 38.9042 83.5965 38.9843 83.837 39.0645C83.9973 39.1446 84.2378 39.2248 84.3982 39.2248C84.5585 39.3049 84.799 39.3049 85.0395 39.3851C85.28 39.4652 85.4403 39.4652 85.6808 39.4652H85.8412V40.6676V41.0683H86.242H87.3643H87.7651V40.6676V39.3851H87.8453C88.0858 39.3049 88.3263 39.2248 88.5668 39.0645C88.8073 38.9843 88.9676 38.824 89.2081 38.6637C89.3684 38.5034 89.5288 38.3431 89.6891 38.1026C89.8494 37.9423 89.9296 37.7019 90.0899 37.4614C90.1701 37.2209 90.2503 36.9805 90.3304 36.74C90.4106 36.4995 90.4106 36.2591 90.4106 35.9385C90.4106 35.698 90.4106 35.5377 90.3304 35.2972Z" fill="#D8BC8B"/>
<path d="M81.0311 46.679C80.6303 46.1179 79.7485 46.0378 79.1873 46.4385L66.2005 56.7784L49.4459 49.805C49.0451 49.6447 48.5641 49.7249 48.2435 49.9653L30.2864 62.79C29.7252 63.1908 29.5649 63.9923 29.9657 64.5534C30.2062 64.9542 30.6071 65.1145 31.0079 65.1145C31.2484 65.1145 31.4889 65.0343 31.7294 64.874L49.1253 52.4501L65.96 59.4235C66.3609 59.5838 66.922 59.5037 67.2427 59.2632L80.7907 48.5225C81.3518 48.1218 81.432 47.2401 81.0311 46.679Z" fill="#D8BC8B"/>
<path d="M99.7899 90.6035H93.8576V53.4921C93.8576 52.7707 93.2965 52.2096 92.575 52.2096H80.7907C80.0692 52.2096 79.508 52.7707 79.508 53.4921V90.6035H75.1791V66.3167C75.1791 65.5954 74.6179 65.0343 73.8964 65.0343H62.0319C61.3105 65.0343 60.7493 65.5954 60.7493 66.3167V90.6035H56.4204V64.393C56.4204 63.6717 55.8592 63.1106 55.1377 63.1106H43.3534C42.6319 63.1106 42.0707 63.6717 42.0707 64.393V90.6035H37.7418V71.9276C37.7418 71.2062 37.1807 70.6451 36.4592 70.6451H24.5947C23.8732 70.6451 23.312 71.2062 23.312 71.9276V90.6035H17.2996C16.5781 90.6035 16.017 91.1646 16.017 91.886C16.017 92.6074 16.5781 93.1685 17.2996 93.1685H24.5145H36.2988H43.3534H55.1377H62.0319H73.8163H80.7105H92.4948H99.7097C100.431 93.1685 100.992 92.6074 100.992 91.886C101.073 91.1646 100.511 90.6035 99.7899 90.6035ZM35.0963 90.6035H25.8773V73.21H35.0963V90.6035ZM53.8551 90.6035H44.636V65.6755H53.8551V90.6035ZM72.5336 90.6035H63.3146V67.5992H72.5336V90.6035ZM91.2923 90.6035H82.0733V54.7745H91.2923V90.6035Z" fill="#D8BC8B"/>
</svg>
