<svg width="121" height="121" viewBox="0 0 121 121" fill="none" xmlns="http://www.w3.org/2000/svg">
<circle cx="60.5" cy="60.5" r="60.5" fill="#41607C" fill-opacity="0.08"/>
<g clip-path="url(#clip0_101_80)">
<path d="M79.8387 30.5806C79.8387 36.422 84.5779 41.1613 90.4193 41.1613C91.1908 41.1613 91.9403 41.0731 92.6677 40.9188C92.9543 41.3817 93.2408 41.8226 93.5054 42.3075L95.8199 41.007C95.6215 40.6764 95.4231 40.3457 95.2247 40.0151C98.6414 38.2516 101 34.7027 101 30.5806C101 24.7392 96.2607 20 90.4193 20C86.2973 20 82.7484 22.3586 80.9849 25.7973C80.4339 25.4667 79.8828 25.136 79.3097 24.8274L78.0753 27.164C78.7586 27.5387 79.4419 27.9355 80.1032 28.3323C79.9269 29.0597 79.8387 29.8091 79.8387 30.5806ZM90.4193 22.6452C94.8059 22.6452 98.3548 26.1941 98.3548 30.5806C98.3548 34.9672 94.8059 38.5161 90.4193 38.5161C86.0328 38.5161 82.4839 34.9672 82.4839 30.5806C82.4839 26.1941 86.0328 22.6452 90.4193 22.6452Z" fill="#D6B764"/>
<path d="M24.7973 40.0151C24.4667 40.5661 24.136 41.1172 23.8274 41.6903L26.164 42.9468C26.5387 42.2634 26.9355 41.5801 27.3323 40.9409C28.0597 41.0731 28.8091 41.1613 29.5806 41.1613C35.422 41.1613 40.1613 36.422 40.1613 30.5806C40.1613 29.8091 40.0731 29.0597 39.9188 28.3323C40.3817 28.0457 40.8226 27.7591 41.2855 27.4946L40.007 25.1801C39.6763 25.3565 39.3457 25.5769 39.015 25.7753C37.2516 22.3586 33.7027 20 29.5806 20C23.7392 20 19 24.7613 19 30.5806C19 34.7027 21.3586 38.2516 24.7973 40.0151ZM29.5806 22.6452C33.9672 22.6452 37.5161 26.1941 37.5161 30.5806C37.5161 34.9672 33.9672 38.5161 29.5806 38.5161C25.1941 38.5161 21.6452 34.9672 21.6452 30.5806C21.6452 26.1941 25.1941 22.6452 29.5806 22.6452Z" fill="#D6B764"/>
<path d="M95.2027 82.007C95.5333 81.4559 95.864 80.9048 96.1726 80.3317L93.836 79.0753C93.4613 79.7586 93.0645 80.4419 92.6677 81.0812C91.9403 80.9269 91.1908 80.8387 90.4193 80.8387C84.5779 80.8387 79.8387 85.578 79.8387 91.4194C79.8387 92.1909 79.9269 92.9403 80.0812 93.6677C79.6183 93.9543 79.1774 94.2409 78.6924 94.5054L79.993 96.8199C80.3236 96.6215 80.6543 96.4231 80.9849 96.2247C82.7263 99.6634 86.2973 102.022 90.4193 102.022C96.2607 102.022 101 97.2828 101 91.4414C101 87.3194 98.6414 83.7484 95.2027 82.007ZM90.4193 99.3548C86.0328 99.3548 82.4838 95.8059 82.4838 91.4194C82.4838 87.0328 86.0328 83.4839 90.4193 83.4839C94.8059 83.4839 98.3548 87.0328 98.3548 91.4194C98.3548 95.8059 94.8059 99.3548 90.4193 99.3548Z" fill="#D6B764"/>
<path d="M40.1613 91.4194C40.1613 85.578 35.422 80.8387 29.5806 80.8387C28.8091 80.8387 28.0597 80.9269 27.3323 81.0812C27.0457 80.6183 26.7591 80.1774 26.4946 79.6925L24.1801 80.993C24.3785 81.3237 24.5769 81.6543 24.7753 81.9849C21.3586 83.7484 19 87.3194 19 91.4194C19 97.2608 23.7392 102 29.5806 102C33.7027 102 37.2516 99.6414 39.0151 96.2027C39.5661 96.5333 40.1172 96.864 40.6903 97.1726L41.9468 94.836C41.2634 94.4613 40.5801 94.0645 39.9188 93.6677C40.0731 92.9403 40.1613 92.1909 40.1613 91.4194ZM29.5806 99.3548C25.1941 99.3548 21.6452 95.8059 21.6452 91.4194C21.6452 87.0328 25.1941 83.4839 29.5806 83.4839C33.9672 83.4839 37.5161 87.0328 37.5161 91.4194C37.5161 95.8059 33.9672 99.3548 29.5806 99.3548Z" fill="#D6B764"/>
<path d="M23.4527 72.6828C23.1881 71.8672 22.9677 71.0516 22.7693 70.236L20.1903 70.8753C20.4107 71.757 20.6532 72.6387 20.9398 73.4984L23.4527 72.6828Z" fill="#D6B764"/>
<path d="M19.6393 68.186L22.2403 67.7231C22.086 66.8855 21.9758 66.0258 21.8877 65.1882L19.2645 65.4747C19.3307 66.3785 19.4629 67.2823 19.6393 68.186Z" fill="#D6B764"/>
<path d="M19.1763 57.2968L21.8215 57.5393C21.8876 56.6796 21.9978 55.8419 22.1301 55.0043L19.507 54.5855C19.3527 55.4893 19.2425 56.393 19.1763 57.2968Z" fill="#D6B764"/>
<path d="M25.3263 77.4441C24.9736 76.6726 24.6209 75.9011 24.3123 75.1075L21.8656 76.0774C22.1962 76.915 22.5709 77.7747 22.9457 78.5903L25.3263 77.4441Z" fill="#D6B764"/>
<path d="M20.014 51.8962L22.593 52.4914C22.7914 51.6538 22.9898 50.8382 23.2322 50.0226L20.6973 49.2731C20.4548 50.1108 20.2123 51.0145 20.014 51.8962Z" fill="#D6B764"/>
<path d="M25.0397 45.2393L22.6371 44.1371C22.2623 44.9527 21.9096 45.8124 21.601 46.6721L24.0698 47.5979C24.3564 46.7823 24.6871 45.9887 25.0397 45.2393Z" fill="#D6B764"/>
<path d="M21.6672 62.6532C21.6452 62.1021 21.6452 61.5511 21.6452 61C21.6452 60.6914 21.6452 60.3828 21.6672 60.0962L19.022 60.0301C19.022 60.3608 19 60.6914 19 61C19 61.5952 19.022 62.1683 19.0441 62.7634L21.6672 62.6532Z" fill="#D6B764"/>
<path d="M69.214 98.2527L69.8532 100.81C70.7349 100.589 71.6166 100.347 72.4763 100.06L71.6607 97.5473C70.8672 97.8118 70.0516 98.0323 69.214 98.2527Z" fill="#D6B764"/>
<path d="M59.0962 99.3548L59.0301 102C59.3607 102 59.6914 102.022 60 102.022C60.5952 102.022 61.1683 102 61.7414 101.978L61.6312 99.3328C60.7935 99.3548 59.9339 99.3769 59.0962 99.3548Z" fill="#D6B764"/>
<path d="M53.5855 101.515C54.4892 101.647 55.393 101.758 56.2968 101.846L56.5392 99.2005C55.6796 99.1344 54.8419 99.0242 54.0043 98.8919L53.5855 101.515Z" fill="#D6B764"/>
<path d="M64.1882 99.1344L64.4747 101.758C65.3565 101.669 66.2823 101.537 67.186 101.383L66.7231 98.7817C65.8855 98.914 65.0258 99.0462 64.1882 99.1344Z" fill="#D6B764"/>
<path d="M43.1371 98.385C43.9747 98.7597 44.8124 99.1124 45.672 99.421L46.5978 96.9301C45.8043 96.6436 45.0107 96.3129 44.2392 95.9602L43.1371 98.385Z" fill="#D6B764"/>
<path d="M74.0855 96.6876L75.0554 99.1565C75.893 98.8258 76.7306 98.4511 77.5683 98.0764L76.4441 95.6957C75.6726 96.0264 74.879 96.379 74.0855 96.6876Z" fill="#D6B764"/>
<path d="M48.2511 100.303C49.1108 100.567 49.9925 100.788 50.8963 100.986L51.4914 98.407C50.6538 98.2086 49.8382 98.0102 49.0226 97.7677L48.2511 100.303Z" fill="#D6B764"/>
<path d="M98.4209 75.35L95.9521 74.4242C95.6435 75.2177 95.3349 76.0113 94.9822 76.7828L97.3849 77.8629C97.7597 77.0473 98.1123 76.1876 98.4209 75.35Z" fill="#D6B764"/>
<path d="M99.986 70.1038L97.407 69.5086C97.2086 70.3462 97.0102 71.1618 96.7678 71.9774L99.3027 72.7269C99.5452 71.8892 99.7877 71.0075 99.986 70.1038Z" fill="#D6B764"/>
<path d="M100.361 53.814L97.7597 54.2769C97.914 55.1366 98.0242 55.9742 98.1124 56.8118L100.735 56.5253C100.669 55.6435 100.537 54.7177 100.361 53.814Z" fill="#D6B764"/>
<path d="M100.846 64.7032L98.2005 64.4607C98.1344 65.3204 98.0242 66.158 97.8919 66.9957L100.515 67.4145C100.647 66.5107 100.758 65.607 100.846 64.7032Z" fill="#D6B764"/>
<path d="M98.3328 59.3468C98.3548 59.8979 98.3548 60.4489 98.3548 61C98.3548 61.3086 98.3548 61.6172 98.3328 61.9038L100.978 61.9699C100.978 61.6393 101 61.3086 101 61C101 60.4048 100.978 59.8317 100.956 59.2366L98.3328 59.3468Z" fill="#D6B764"/>
<path d="M94.6736 44.578C95.0263 45.3495 95.379 46.121 95.6876 46.9145L98.1565 45.9446C97.8258 45.107 97.4511 44.2473 97.0763 43.4317L94.6736 44.578Z" fill="#D6B764"/>
<path d="M99.8097 51.1468C99.5892 50.2651 99.3468 49.3833 99.0602 48.5237L96.5473 49.3392C96.8118 50.1548 97.0322 50.9704 97.2306 51.786L99.8097 51.1468Z" fill="#D6B764"/>
<path d="M66.4145 20.507C65.5107 20.3747 64.6069 20.2425 63.7032 20.1764L63.4607 22.8215C64.3204 22.8877 65.158 22.9979 65.9957 23.1301L66.4145 20.507Z" fill="#D6B764"/>
<path d="M55.8119 22.8656L55.5253 20.2425C54.6215 20.3306 53.7178 20.4629 52.814 20.6392L53.2769 23.2403C54.1145 23.086 54.9522 22.9758 55.8119 22.8656Z" fill="#D6B764"/>
<path d="M76.8629 23.6151C76.0252 23.2403 75.1876 22.8876 74.3279 22.579L73.4242 25.0699C74.2177 25.3785 75.0113 25.6871 75.7828 26.0398L76.8629 23.6151Z" fill="#D6B764"/>
<path d="M45.9145 25.3124L44.9446 22.8656C44.107 23.1962 43.2694 23.571 42.4317 23.9457L43.5559 26.3263C44.3274 25.9737 45.121 25.621 45.9145 25.3124Z" fill="#D6B764"/>
<path d="M50.764 23.7694L50.1247 21.2124C49.243 21.4328 48.3613 21.6753 47.5016 21.9618L48.3172 24.4747C49.1328 24.2102 49.9484 23.9678 50.764 23.7694Z" fill="#D6B764"/>
<path d="M71.7489 21.7193C70.8893 21.4548 69.9855 21.2344 69.1038 21.036L68.5306 23.615C69.3683 23.8134 70.1839 24.0118 70.9995 24.2543L71.7489 21.7193Z" fill="#D6B764"/>
<path d="M59.9559 22.6452C60.2866 22.6452 60.5952 22.6452 60.9038 22.6452L60.9699 20C60.6613 20 60.3307 20 60 20C59.3828 19.978 58.8317 20.022 58.2366 20.0441L58.3468 22.6892C58.8758 22.6672 59.4269 22.6452 59.9559 22.6452Z" fill="#D6B764"/>
<path d="M59.8898 36.8849C46.7522 36.8849 36.1054 47.5317 36.1054 60.6694C36.1054 73.807 46.7522 84.4538 59.8898 84.4538C73.0274 84.4538 83.6742 73.807 83.6742 60.6694C83.6742 47.5317 73.0274 36.8849 59.8898 36.8849ZM80.4559 69.0016L73.6887 70.1699C74.4602 67.3263 74.879 64.3946 74.9231 61.4629H82.043C81.9769 64.0419 81.4479 66.5989 80.4559 69.0016ZM37.7145 61.4629H44.8344C44.8785 64.4167 45.2973 67.3263 46.0688 70.1699L39.3016 69.0016C38.3317 66.5989 37.8027 64.0419 37.7145 61.4629ZM39.3237 52.3371L46.0909 51.1688C45.3194 54.0124 44.9006 56.9441 44.8565 59.8758H37.7145C37.8027 57.2968 38.3317 54.7398 39.3237 52.3371ZM60.6834 49.6038C63.5269 49.6478 66.3704 49.8903 69.192 50.3753L71.9914 50.8602C72.8511 53.7919 73.314 56.8118 73.3581 59.8758H60.6834V49.6038V49.6038ZM69.4565 48.8323C66.5688 48.3473 63.6151 48.0607 60.6834 48.0387V38.5161C65.2242 38.957 69.1699 43.1231 71.4183 49.1849L69.4565 48.8323ZM59.0963 48.0167C56.1645 48.0607 53.2328 48.3253 50.3231 48.8102L48.3613 49.1409C50.6097 43.079 54.5554 38.9129 59.0963 38.472V48.0167V48.0167ZM50.5877 50.3973C53.3871 49.9124 56.2307 49.6478 59.0963 49.6258V59.8978H46.4215C46.4656 56.8559 46.9285 53.814 47.7882 50.8823L50.5877 50.3973ZM46.4215 61.4629H59.0963V71.7349C56.2527 71.6909 53.4092 71.4484 50.5877 70.9634L47.7882 70.4785C46.9285 67.5468 46.4656 64.5048 46.4215 61.4629ZM50.3231 72.5064C53.2108 73.0134 56.1645 73.278 59.0963 73.3V82.8226C54.5554 82.3817 50.6097 78.2156 48.3613 72.1538L50.3231 72.5064ZM60.6834 73.322C63.6151 73.2779 66.5468 73.0134 69.4565 72.5285L71.4183 72.1978C69.1699 78.2597 65.2242 82.4258 60.6834 82.8667V73.322V73.322ZM69.192 70.9414C66.3925 71.4263 63.5489 71.6909 60.6834 71.7129V61.4409H73.3581C73.314 64.4828 72.8511 67.5247 71.9914 70.4564L69.192 70.9414ZM74.9452 59.8758C74.9011 56.922 74.4823 54.0124 73.7108 51.1688L80.478 52.3371C81.4479 54.7398 81.9989 57.2968 82.0871 59.8758H74.9452V59.8758ZM79.6624 50.5957L73.1817 49.4715C72.0135 45.6581 69.8312 42.2634 66.8774 39.5962C72.4102 41.4478 76.9952 45.3935 79.6624 50.5957ZM52.9022 39.5962C49.9484 42.2414 47.7661 45.6581 46.5979 49.4715L40.1172 50.5957C42.7844 45.3935 47.3694 41.4478 52.9022 39.5962ZM40.1172 70.743L46.5979 71.8672C47.7661 75.6806 49.9484 79.0753 52.9022 81.7425C47.3694 79.8909 42.7844 75.9452 40.1172 70.743ZM66.8774 81.7425C69.8312 79.0973 72.0135 75.6806 73.1817 71.8672L79.6624 70.743C76.9952 75.9452 72.4102 79.8909 66.8774 81.7425Z" fill="#D6B764"/>
</g>
<defs>
<clipPath id="clip0_101_80">
<rect width="82" height="82" fill="white" transform="translate(19 20)"/>
</clipPath>
</defs>
</svg>
